{"asset":{"version":"2.0","generator":"e-verse custom generator","copyright":"free tool created by e-verse"},"scenes":[{"nodes":[0]}],"nodes":[{"name":"rootNode","children":[1],"rotation":[0.7071,0.0,0.0,-0.7071],"translation":[0.0,0.0,0.0],"scale":[1.0,1.0,1.0]},{"name":"FamilyInstance Lighting Fixtures Recessed Lamp - Linear - LED <2269103 24''<","mesh":0}],"meshes":[{"primitives":[{"attributes":{"POSITION":0},"indices":1,"material":0,"mode":4},{"attributes":{"POSITION":2},"indices":3,"material":1,"mode":4},{"attributes":{"POSITION":4},"indices":5,"material":2,"mode":4}],"name":"24''"}],"buffers":[{"uri":"element_export 2269103.bin","byteLength":84096}],"bufferViews":[{"buffer":0,"byteOffset":0,"byteLength":58896,"target":34962,"name":""},{"buffer":0,"byteOffset":58896,"byteLength":19632,"target":34963,"name":""},{"buffer":0,"byteOffset":78528,"byteLength":1008,"target":34962,"name":""},{"buffer":0,"byteOffset":79536,"byteLength":336,"target":34963,"name":""},{"buffer":0,"byteOffset":79872,"byteLength":3168,"target":34962,"name":""},{"buffer":0,"byteOffset":83040,"byteLength":1056,"target":34963,"name":""}],"accessors":[{"bufferView":0,"byteOffset":0,"componentType":5126,"count":4908,"type":"VEC3","max":[-5.5558906,-8.618959,38.861572],"min":[-7.536692,-10.618959,36.961987],"name":"POSITION"},{"bufferView":1,"byteOffset":0,"componentType":5125,"count":4908,"type":"SCALAR","max":[4907.0],"min":[0.0],"name":"FACE"},{"bufferView":2,"byteOffset":0,"componentType":5126,"count":84,"type":"VEC3","max":[-6.4895835,-10.623435,38.916668],"min":[-6.59375,-10.65625,36.916668],"name":"POSITION"},{"bufferView":3,"byteOffset":0,"componentType":5125,"count":84,"type":"SCALAR","max":[83.0],"min":[0.0],"name":"FACE"},{"bufferView":4,"byteOffset":0,"componentType":5126,"count":264,"type":"VEC3","max":[-6.4895835,-10.623435,38.941666],"min":[-6.59375,-10.65625,36.891666],"name":"POSITION"},{"bufferView":5,"byteOffset":0,"componentType":5125,"count":264,"type":"SCALAR","max":[263.0],"min":[0.0],"name":"FACE"}],"materials":[{"name":"default","pbrMetallicRoughness":{"baseColorFactor":[1.0,1.0,1.0,1.0],"metallicFactor":0.0,"roughnessFactor":1.0},"doubleSided":false},{"alphaMode":"BLEND","name":"Glass, White, High Luminance","pbrMetallicRoughness":{"baseColorFactor":[0.9473066,0.9559735,0.9473066,0.20999998],"metallicFactor":0.0,"roughnessFactor":0.5},"doubleSided":true},{"alphaMode":"OPAQUE","name":"Steel, Paint Finish, Ivory, Glossy","pbrMetallicRoughness":{"baseColorFactor":[0.9301109,0.9301109,0.8631573,1.0],"metallicFactor":0.0,"roughnessFactor":1.0},"doubleSided":true}]}