{"asset":{"version":"2.0","generator":"e-verse custom generator","copyright":"free tool created by e-verse"},"scenes":[{"nodes":[0]}],"nodes":[{"name":"rootNode","children":[1],"rotation":[0.7071,0.0,0.0,-0.7071],"translation":[0.0,0.0,0.0],"scale":[1.0,1.0,1.0]},{"name":"FamilyInstance Lighting Fixtures Downlight - Under Cabinet <2104596 24\" 120V<","mesh":0}],"meshes":[{"primitives":[{"attributes":{"POSITION":0},"indices":1,"material":0,"mode":4},{"attributes":{"POSITION":2},"indices":3,"material":1,"mode":4},{"attributes":{"POSITION":4},"indices":5,"material":2,"mode":4}],"name":"24\" 120V"}],"buffers":[{"uri":"element_export 2104596.bin","byteLength":41472}],"bufferViews":[{"buffer":0,"byteOffset":0,"byteLength":1872,"target":34962,"name":""},{"buffer":0,"byteOffset":1872,"byteLength":624,"target":34963,"name":""},{"buffer":0,"byteOffset":2496,"byteLength":3024,"target":34962,"name":""},{"buffer":0,"byteOffset":5520,"byteLength":1008,"target":34963,"name":""},{"buffer":0,"byteOffset":6528,"byteLength":26208,"target":34962,"name":""},{"buffer":0,"byteOffset":32736,"byteLength":8736,"target":34963,"name":""}],"accessors":[{"bufferView":0,"byteOffset":0,"componentType":5126,"count":156,"type":"VEC3","max":[-1.2657678,-7.6720138,37.64531],"min":[-1.3074344,-9.547013,37.60469],"name":"POSITION"},{"bufferView":1,"byteOffset":0,"componentType":5125,"count":156,"type":"SCALAR","max":[155.0],"min":[0.0],"name":"FACE"},{"bufferView":2,"byteOffset":0,"componentType":5126,"count":252,"type":"VEC3","max":[-1.2605594,-7.6095138,37.666668],"min":[-1.3126428,-9.609513,37.599613],"name":"POSITION"},{"bufferView":3,"byteOffset":0,"componentType":5125,"count":252,"type":"SCALAR","max":[251.0],"min":[0.0],"name":"FACE"},{"bufferView":4,"byteOffset":0,"componentType":5126,"count":2184,"type":"VEC3","max":[-0.41866967,-7.418535,37.794605],"min":[-2.1545327,-9.336313,35.794605],"name":"POSITION"},{"bufferView":5,"byteOffset":0,"componentType":5125,"count":2184,"type":"SCALAR","max":[2183.0],"min":[0.0],"name":"FACE"}],"materials":[{"alphaMode":"BLEND","name":"Glass, White, High Luminance","pbrMetallicRoughness":{"baseColorFactor":[0.9473066,0.9559735,0.9473066,0.20999998],"metallicFactor":0.0,"roughnessFactor":0.5},"doubleSided":true},{"alphaMode":"OPAQUE","name":"Steel, Paint Finish, Ivory, Glossy","pbrMetallicRoughness":{"baseColorFactor":[0.9301109,0.9301109,0.8631573,1.0],"metallicFactor":0.0,"roughnessFactor":1.0},"doubleSided":true},{"name":"default","pbrMetallicRoughness":{"baseColorFactor":[1.0,1.0,1.0,1.0],"metallicFactor":0.0,"roughnessFactor":1.0},"doubleSided":false}]}