{"asset":{"version":"2.0","generator":"e-verse custom generator","copyright":"free tool created by e-verse"},"scenes":[{"nodes":[0]}],"nodes":[{"name":"rootNode","children":[1],"rotation":[0.7071,0.0,0.0,-0.7071],"translation":[0.0,0.0,0.0],"scale":[1.0,1.0,1.0]},{"name":"FamilyInstance Lighting Fixtures Recessed Lamp - Round - LED <2103774 4\" Trimmed Downlight<","mesh":0}],"meshes":[{"primitives":[{"attributes":{"POSITION":0},"indices":1,"material":0,"mode":4},{"attributes":{"POSITION":2},"indices":3,"material":1,"mode":4},{"attributes":{"POSITION":4},"indices":5,"material":2,"mode":4}],"name":"4\" Trimmed Downlight"}],"buffers":[{"uri":"element_export 2103774.bin","byteLength":77184}],"bufferViews":[{"buffer":0,"byteOffset":0,"byteLength":39168,"target":34962,"name":""},{"buffer":0,"byteOffset":39168,"byteLength":13056,"target":34963,"name":""},{"buffer":0,"byteOffset":52224,"byteLength":15408,"target":34962,"name":""},{"buffer":0,"byteOffset":67632,"byteLength":5136,"target":34963,"name":""},{"buffer":0,"byteOffset":72768,"byteLength":3312,"target":34962,"name":""},{"buffer":0,"byteOffset":76080,"byteLength":1104,"target":34963,"name":""}],"accessors":[{"bufferView":0,"byteOffset":0,"componentType":5126,"count":3264,"type":"VEC3","max":[-9.940837,-3.170004,40.140625],"min":[-10.600829,-3.829996,38.140625],"name":"POSITION"},{"bufferView":1,"byteOffset":0,"componentType":5125,"count":3264,"type":"SCALAR","max":[3263.0],"min":[0.0],"name":"FACE"},{"bufferView":2,"byteOffset":0,"componentType":5126,"count":1284,"type":"VEC3","max":[-10.020833,-3.25,40.291668],"min":[-10.520833,-3.75,40.145832],"name":"POSITION"},{"bufferView":3,"byteOffset":0,"componentType":5125,"count":1284,"type":"SCALAR","max":[1283.0],"min":[0.0],"name":"FACE"},{"bufferView":4,"byteOffset":0,"componentType":5126,"count":276,"type":"VEC3","max":[-10.104167,-3.3333333,40.166668],"min":[-10.4375,-3.6666667,40.145832],"name":"POSITION"},{"bufferView":5,"byteOffset":0,"componentType":5125,"count":276,"type":"SCALAR","max":[275.0],"min":[0.0],"name":"FACE"}],"materials":[{"name":"default","pbrMetallicRoughness":{"baseColorFactor":[1.0,1.0,1.0,1.0],"metallicFactor":0.0,"roughnessFactor":1.0},"doubleSided":false},{"alphaMode":"OPAQUE","name":"Steel, Paint Finish, Ivory, Glossy","pbrMetallicRoughness":{"baseColorFactor":[0.9301109,0.9301109,0.8631573,1.0],"metallicFactor":0.0,"roughnessFactor":1.0},"doubleSided":true},{"alphaMode":"BLEND","name":"Glass, White, High Luminance","pbrMetallicRoughness":{"baseColorFactor":[0.9473066,0.9559735,0.9473066,0.20999998],"metallicFactor":0.0,"roughnessFactor":0.5},"doubleSided":true}]}