{"asset":{"version":"2.0","generator":"e-verse custom generator","copyright":"free tool created by e-verse"},"scenes":[{"nodes":[0]}],"nodes":[{"name":"rootNode","children":[1],"rotation":[0.7071,0.0,0.0,-0.7071],"translation":[0.0,0.0,0.0],"scale":[1.0,1.0,1.0]},{"name":"FamilyInstance Plumbing Fixtures Sink Vanity-Round <838001 19\" x 19\"<","mesh":0}],"meshes":[{"primitives":[{"attributes":{"POSITION":0},"indices":1,"material":0,"mode":4},{"attributes":{"POSITION":2},"indices":3,"material":1,"mode":4},{"attributes":{"POSITION":4},"indices":5,"material":2,"mode":4}],"name":"19\" x 19\""}],"buffers":[{"uri":"element_export 838001.bin","byteLength":64224}],"bufferViews":[{"buffer":0,"byteOffset":0,"byteLength":13536,"target":34962,"name":""},{"buffer":0,"byteOffset":13536,"byteLength":4512,"target":34963,"name":""},{"buffer":0,"byteOffset":18048,"byteLength":2880,"target":34962,"name":""},{"buffer":0,"byteOffset":20928,"byteLength":960,"target":34963,"name":""},{"buffer":0,"byteOffset":21888,"byteLength":31752,"target":34962,"name":""},{"buffer":0,"byteOffset":53640,"byteLength":10584,"target":34963,"name":""}],"accessors":[{"bufferView":0,"byteOffset":0,"componentType":5126,"count":1128,"type":"VEC3","max":[-10.125,-9.750935,35.364117],"min":[-10.541667,-10.186456,34.78125],"name":"POSITION"},{"bufferView":1,"byteOffset":0,"componentType":5125,"count":1128,"type":"SCALAR","max":[1127.0],"min":[0.0],"name":"FACE"},{"bufferView":2,"byteOffset":0,"componentType":5126,"count":240,"type":"VEC3","max":[-10.265625,-9.548573,34.111168],"min":[-10.401042,-9.680594,34.041668],"name":"POSITION"},{"bufferView":3,"byteOffset":0,"componentType":5125,"count":240,"type":"SCALAR","max":[239.0],"min":[0.0],"name":"FACE"},{"bufferView":4,"byteOffset":0,"componentType":5126,"count":2646,"type":"VEC3","max":[-9.541667,-8.822917,34.78198],"min":[-11.125,-10.40625,34.041668],"name":"POSITION"},{"bufferView":5,"byteOffset":0,"componentType":5125,"count":2646,"type":"SCALAR","max":[2645.0],"min":[0.0],"name":"FACE"}],"materials":[{"alphaMode":"OPAQUE","name":"Steel, Polished","pbrMetallicRoughness":{"baseColorFactor":[0.5271152,0.5271152,0.5271152,1.0],"metallicFactor":0.0,"roughnessFactor":1.0},"doubleSided":true},{"name":"default","pbrMetallicRoughness":{"baseColorFactor":[1.0,1.0,1.0,1.0],"metallicFactor":0.0,"roughnessFactor":1.0},"doubleSided":true},{"alphaMode":"OPAQUE","name":"Porcelain, Linen","pbrMetallicRoughness":{"baseColorFactor":[0.9473066,0.8631573,0.79129803,1.0],"metallicFactor":0.0,"roughnessFactor":1.0},"doubleSided":true}]}