{"asset":{"version":"2.0","generator":"e-verse custom generator","copyright":"free tool created by e-verse"},"scenes":[{"nodes":[0]}],"nodes":[{"name":"rootNode","children":[1],"rotation":[0.7071,0.0,0.0,-0.7071],"translation":[0.0,0.0,0.0],"scale":[1.0,1.0,1.0]},{"name":"Space Spaces <2492934 Live/Work Loft Unit 50<","mesh":0}],"meshes":[{"primitives":[{"attributes":{"POSITION":0},"indices":1,"material":0,"mode":4}],"name":"Live/Work Loft Unit 50"}],"buffers":[{"uri":"element_export 2492934.bin","byteLength":9504}],"bufferViews":[{"buffer":0,"byteOffset":0,"byteLength":7128,"target":34962,"name":""},{"buffer":0,"byteOffset":7128,"byteLength":2376,"target":34963,"name":""}],"accessors":[{"bufferView":0,"byteOffset":0,"componentType":5126,"count":594,"type":"VEC3","max":[3.09375,2.2395833,53.666668],"min":[-19.760416,-29.5625,32.166668],"name":"POSITION"},{"bufferView":1,"byteOffset":0,"componentType":5125,"count":594,"type":"SCALAR","max":[593.0],"min":[0.0],"name":"FACE"}],"materials":[{"name":"default","pbrMetallicRoughness":{"baseColorFactor":[1.0,1.0,1.0,1.0],"metallicFactor":0.0,"roughnessFactor":1.0},"doubleSided":true}]}